<?xml version="1.0" encoding="UTF-8"?>
<svg id="katman_2" data-name="katman 2" xmlns="http://www.w3.org/2000/svg" viewBox="0 0 1607.33 573.5">
  <defs>
    <style>
      .cls-1 {
        fill: #492510;
      }

      .cls-1, .cls-2, .cls-3 {
        stroke-width: 0px;
      }

      .cls-2 {
        fill: #7c4119;
      }

      .cls-3 {
        fill: #965123;
      }
    </style>
  </defs>
  <g id="katman_1" data-name="katman 1">
    <g>
      <g>
        <polygon class="cls-2" points=".84 573.5 .93 573.5 .84 573.29 .84 573.5"/>
        <path class="cls-1" d="M385.68,0c-65.6,1.01-128.94,1.51-190.01,1.51h-95.38C68.62,1.51,35.19,1.01,0,0l1.13,19.23,50.52,14.7c5.78,1.76,8.8,5.91,9.05,12.44.25,8.55.44,17.97.57,28.28.12,10.31.19,21.74.19,34.31v188.13l113.1-38.45V39.96h145.9l24.13,91.61,20.36-3.02L388.32,3.02l-2.64-3.02Z"/>
        <path class="cls-2" d="M280.47,330.48l3.75,13.69,24.88-2.26c-.2-9.71-.38-16.26-.53-20.99l-28.11,9.56Z"/>
        <g>
          <polygon class="cls-3" points="7.45 551.67 .93 573.5 241.05 573.5 234.53 551.67 7.45 551.67"/>
          <polygon class="cls-3" points="225.44 521.24 16.54 521.24 10.02 543.08 231.97 543.08 225.44 521.24"/>
          <polygon class="cls-3" points="83.29 479.02 83.29 456.8 83.29 395.92 83.29 371.53 83.29 298.14 61.45 305.61 61.45 378.96 61.45 395.92 61.45 456.8 61.45 479.02 61.45 512.65 83.29 512.65 83.29 479.02"/>
          <polygon class="cls-3" points="113.71 456.8 113.71 456.8 113.71 395.92 113.71 395.92 113.71 287.72 91.88 295.19 91.88 368.6 91.88 395.92 91.88 456.8 91.88 512.65 113.71 512.65 113.71 456.8"/>
          <polygon class="cls-3" points="144.13 479.02 144.13 456.8 144.13 350.86 144.13 350.86 144.13 277.3 122.3 284.78 122.3 358.28 122.3 358.28 122.3 456.8 122.3 479.02 122.3 512.65 144.13 512.65 144.13 479.02"/>
          <path class="cls-3" d="M308.11,175.42l-24.88,1.13-13.57,56.98c-.08.3-.17.59-.27.88l-116.67,39.95h0v121.56h0v60.88h0v55.85h21.83v-55.85h0v-60.88h0v-83.47s0-23.08,0-23.08l89.15-30.53,13.99,61.14,29.65-10.08c-.24-6.25-.36-8.11-.36-18.04,0-18.1.38-79.99,1.13-116.43Z"/>
        </g>
      </g>
      <g>
        <g>
          <path class="cls-1" d="M599.09,71.28v28.17h-89.35v62.09h69.66v28.17h-69.66v92.07h-34.53V71.28h123.87Z"/>
          <path class="cls-1" d="M665.41,71.28v134.17c0,15.95,4.19,27.97,12.57,36.04,8.38,8.08,20.04,12.11,34.98,12.11s26.9-4.04,35.28-12.11c8.38-8.07,12.57-20.09,12.57-36.04V71.28h34.53v133.57c0,17.16-3.74,31.7-11.21,43.61-7.47,11.92-17.47,20.8-29.98,26.65-12.52,5.86-26.35,8.78-41.49,8.78s-28.92-2.92-41.34-8.78c-12.42-5.85-22.26-14.74-29.53-26.65-7.27-11.91-10.9-26.45-10.9-43.61V71.28h34.53Z"/>
          <path class="cls-1" d="M949.5,281.77l-48.46-84.2h-26.35v84.2h-34.53V71.28h72.69c16.15,0,29.83,2.83,41.04,8.48,11.21,5.65,19.58,13.23,25.14,22.72,5.55,9.49,8.33,20.09,8.33,31.8,0,13.73-3.99,26.2-11.96,37.4-7.98,11.21-20.25,18.83-36.8,22.87l52.09,87.23h-41.19ZM874.69,170.02h38.16c12.92,0,22.66-3.23,29.23-9.69,6.56-6.46,9.84-15.14,9.84-26.05s-3.23-19.43-9.69-25.59c-6.46-6.16-16.26-9.24-29.38-9.24h-38.16v70.57Z"/>
          <path class="cls-1" d="M1147.58,281.77l-81.47-94.19v94.19h-34.53V71.28h34.53v96.01l81.78-96.01h43.31l-91.47,105.4,92.98,105.1h-45.13Z"/>
          <path class="cls-1" d="M1350.2,238.77h-88.14l-15.14,43.01h-36.04l75.41-210.8h39.98l75.41,210.8h-36.34l-15.14-43.01ZM1340.5,210.6l-34.22-97.83-34.53,97.83h68.75Z"/>
          <path class="cls-1" d="M1607.33,281.77h-34.53l-103.88-157.19v157.19h-34.53V70.98h34.53l103.88,156.89V70.98h34.53v210.8Z"/>
        </g>
        <g>
          <path class="cls-3" d="M578.62,530.48l-72.63-83.97v83.97h-30.78v-187.65h30.78v85.59l72.9-85.59h38.61l-81.54,93.96,82.89,93.69h-40.23Z"/>
          <path class="cls-3" d="M759.26,492.14h-78.57l-13.5,38.34h-32.13l67.23-187.92h35.64l67.23,187.92h-32.4l-13.5-38.34ZM750.62,467.03l-30.51-87.21-30.78,87.21h61.29Z"/>
          <path class="cls-3" d="M864.01,503.75h87.21v26.73h-123.66v-24.03l86.94-136.89h-86.94v-26.73h123.66v24.03l-87.21,136.89Z"/>
          <path class="cls-3" d="M1098.11,492.14h-78.57l-13.5,38.34h-32.13l67.23-187.92h35.64l67.23,187.92h-32.4l-13.5-38.34ZM1089.47,467.03l-30.51-87.21-30.78,87.21h61.29Z"/>
          <path class="cls-3" d="M1327.34,530.48h-30.78l-92.61-140.13v140.13h-30.78v-187.92h30.78l92.61,139.86v-139.86h30.78v187.92Z"/>
          <path class="cls-3" d="M1370.4,386.83c8.55-14.58,20.16-25.96,34.83-34.16,14.67-8.19,30.73-12.29,48.2-12.29,19.98,0,37.75,4.91,53.33,14.72,15.57,9.81,26.87,23.72,33.89,41.71h-36.99c-4.86-9.9-11.61-17.28-20.25-22.14-8.64-4.86-18.63-7.29-29.97-7.29-12.42,0-23.49,2.79-33.21,8.37-9.72,5.58-17.33,13.59-22.82,24.03-5.49,10.44-8.23,22.59-8.23,36.45s2.74,26.01,8.23,36.45c5.49,10.44,13.1,18.49,22.82,24.17,9.72,5.67,20.79,8.5,33.21,8.5,11.34,0,21.33-2.43,29.97-7.29,8.64-4.86,15.39-12.24,20.25-22.14h36.99c-7.02,18-18.32,31.86-33.89,41.58-15.57,9.72-33.34,14.58-53.33,14.58-17.64,0-33.75-4.09-48.33-12.29-14.58-8.19-26.15-19.57-34.7-34.15-8.55-14.58-12.83-31.05-12.83-49.41s4.27-34.83,12.83-49.41Z"/>
          <path class="cls-3" d="M1607.33,342.82v187.65h-30.78v-187.65h30.78Z"/>
        </g>
      </g>
    </g>
  </g>
</svg>